<svg xmlns="http://www.w3.org/2000/svg" xmlns:xlink="http://www.w3.org/1999/xlink" width="500" zoomAndPan="magnify" viewBox="0 0 375 157.92" height="200" preserveAspectRatio="xMidYMid meet" version="1.0"><defs><g/><clipPath id="c425e840b0"><path d="M 39 24.695312 L 51 24.695312 L 51 74 L 39 74 Z M 39 24.695312 " clip-rule="nonzero"/></clipPath><clipPath id="a396d7102a"><path d="M 40 69 L 53 69 L 53 117.847656 L 40 117.847656 Z M 40 69 " clip-rule="nonzero"/></clipPath><clipPath id="0287e8ac40"><path d="M 40 24.695312 L 53 24.695312 L 53 74 L 40 74 Z M 40 24.695312 " clip-rule="nonzero"/></clipPath><clipPath id="56e07e4d4c"><path d="M 39 69 L 51 69 L 51 117.847656 L 39 117.847656 Z M 39 69 " clip-rule="nonzero"/></clipPath><clipPath id="dae9eb7fdd"><path d="M 0.613281 64 L 45 64 L 45 74 L 0.613281 74 Z M 0.613281 64 " clip-rule="nonzero"/></clipPath><clipPath id="5f4a00c990"><path d="M 47 68 L 90.941406 68 L 90.941406 78 L 47 78 Z M 47 68 " clip-rule="nonzero"/></clipPath><clipPath id="071efca272"><path d="M 47 64 L 90.941406 64 L 90.941406 74 L 47 74 Z M 47 64 " clip-rule="nonzero"/></clipPath><clipPath id="2a901a0a33"><path d="M 0.613281 68 L 45 68 L 45 78 L 0.613281 78 Z M 0.613281 68 " clip-rule="nonzero"/></clipPath><clipPath id="dfb56b1fa3"><rect x="0" width="362" y="0" height="132"/></clipPath></defs><g transform="matrix(1, 0, 0, 1, 3, 4)"><g clip-path="url(#dfb56b1fa3)"><g clip-path="url(#c425e840b0)"><path fill="#18ff90" d="M 45.898438 24.695312 C 45.710938 26.449219 45.675781 28.144531 45.191406 30.714844 C 42.125 46.972656 41.34375 52.269531 41.015625 54.800781 C 40.09375 61.957031 39.507812 67.433594 39.332031 71.25 C 39.671875 72.308594 40.375 72.792969 41.417969 72.953125 C 42.425781 73.105469 45.5625 73.136719 50.875 72.796875 Z M 45.898438 24.695312 " fill-opacity="1" fill-rule="nonzero"/></g><g clip-path="url(#a396d7102a)"><path fill="#18ff90" d="M 45.847656 117.523438 C 46.035156 115.765625 46.070312 114.070312 46.554688 111.503906 C 49.621094 95.246094 50.402344 89.949219 50.730469 87.414062 C 51.65625 80.261719 52.238281 74.78125 52.414062 70.96875 C 52.074219 69.910156 51.371094 69.421875 50.328125 69.265625 C 49.320312 69.109375 46.183594 69.078125 40.871094 69.417969 Z M 45.847656 117.523438 " fill-opacity="1" fill-rule="nonzero"/></g><g clip-path="url(#0287e8ac40)"><path fill="#18ff90" d="M 45.847656 24.695312 C 46.035156 26.449219 46.070312 28.144531 46.554688 30.714844 C 49.621094 46.972656 50.402344 52.269531 50.730469 54.800781 C 51.65625 61.957031 52.238281 67.433594 52.414062 71.25 C 52.074219 72.308594 51.371094 72.792969 50.328125 72.953125 C 49.320312 73.105469 46.183594 73.136719 40.871094 72.796875 Z M 45.847656 24.695312 " fill-opacity="1" fill-rule="nonzero"/></g><g clip-path="url(#56e07e4d4c)"><path fill="#18ff90" d="M 45.898438 117.523438 C 45.710938 115.765625 45.675781 114.070312 45.191406 111.503906 C 42.125 95.246094 41.34375 89.949219 41.015625 87.414062 C 40.09375 80.261719 39.507812 74.78125 39.332031 70.96875 C 39.671875 69.910156 40.375 69.421875 41.417969 69.265625 C 42.425781 69.109375 45.5625 69.078125 50.875 69.417969 Z M 45.898438 117.523438 " fill-opacity="1" fill-rule="nonzero"/></g><g clip-path="url(#dae9eb7fdd)"><path fill="#18ff90" d="M 0.683594 71.117188 C 7.304688 69.402344 21.246094 67.195312 41.863281 64.324219 C 42.738281 64.203125 43.429688 64.832031 43.980469 65.992188 C 44.414062 66.910156 44.164062 69.863281 44.722656 73.273438 Z M 0.683594 71.117188 " fill-opacity="1" fill-rule="nonzero"/></g><g clip-path="url(#5f4a00c990)"><path fill="#18ff90" d="M 91.066406 71.097656 C 84.441406 72.816406 70.5 75.023438 49.882812 77.890625 C 49.007812 78.015625 48.316406 77.386719 47.765625 76.222656 C 47.335938 75.308594 47.582031 72.351562 47.023438 68.941406 Z M 91.066406 71.097656 " fill-opacity="1" fill-rule="nonzero"/></g><g clip-path="url(#071efca272)"><path fill="#18ff90" d="M 91.066406 71.117188 C 84.441406 69.402344 70.5 67.195312 49.882812 64.324219 C 49.007812 64.203125 48.316406 64.832031 47.765625 65.992188 C 47.335938 66.910156 47.582031 69.863281 47.023438 73.273438 Z M 91.066406 71.117188 " fill-opacity="1" fill-rule="nonzero"/></g><g clip-path="url(#2a901a0a33)"><path fill="#18ff90" d="M 0.683594 71.097656 C 7.304688 72.816406 21.246094 75.023438 41.863281 77.890625 C 42.738281 78.015625 43.429688 77.386719 43.980469 76.222656 C 44.414062 75.308594 44.164062 72.351562 44.722656 68.941406 Z M 0.683594 71.097656 " fill-opacity="1" fill-rule="nonzero"/></g><path fill="#18ff90" d="M 36.203125 76.878906 C 34.75 78.894531 31.121094 83.140625 25.3125 89.613281 C 24.816406 90.1875 24.667969 90.4375 24.871094 90.363281 C 25.066406 90.355469 25.261719 90.296875 25.464844 90.1875 L 25.519531 90.15625 C 27.433594 88.917969 30.347656 87.21875 34.265625 85.050781 L 44.558594 79.652344 C 45.890625 78.898438 46.945312 78.1875 47.730469 77.527344 Z M 36.203125 76.878906 " fill-opacity="1" fill-rule="nonzero"/><path fill="#18ff90" d="M 55.542969 65.339844 C 56.996094 63.324219 60.628906 59.078125 66.4375 52.605469 C 66.929688 52.027344 67.078125 51.78125 66.875 51.855469 C 66.679688 51.863281 66.484375 51.917969 66.285156 52.027344 L 66.226562 52.0625 C 64.316406 53.300781 61.398438 55 57.480469 57.164062 L 47.1875 62.566406 C 45.859375 63.320312 44.800781 64.027344 44.015625 64.691406 Z M 55.542969 65.339844 " fill-opacity="1" fill-rule="nonzero"/><path fill="#18ff90" d="M 55.542969 76.878906 C 56.996094 78.894531 60.628906 83.140625 66.4375 89.613281 C 66.929688 90.1875 67.078125 90.4375 66.875 90.363281 C 66.679688 90.355469 66.484375 90.296875 66.285156 90.1875 L 66.226562 90.15625 C 64.316406 88.917969 61.398438 87.21875 57.480469 85.050781 L 47.1875 79.652344 C 45.859375 78.898438 44.800781 78.1875 44.015625 77.527344 Z M 55.542969 76.878906 " fill-opacity="1" fill-rule="nonzero"/><path fill="#18ff90" d="M 36.203125 65.339844 C 34.75 63.324219 31.121094 59.078125 25.3125 52.605469 C 24.816406 52.027344 24.667969 51.78125 24.871094 51.855469 C 25.066406 51.863281 25.261719 51.917969 25.464844 52.027344 L 25.519531 52.0625 C 27.433594 53.300781 30.347656 55 34.265625 57.164062 L 44.558594 62.566406 C 45.890625 63.320312 46.945312 64.027344 47.730469 64.691406 Z M 36.203125 65.339844 " fill-opacity="1" fill-rule="nonzero"/><g fill="#ffffff" fill-opacity="1"><g transform="translate(86.045568, 104.953853)"><g><path d="M 53.015625 -59.515625 C 52.546875 -63.441406 50.65625 -66.488281 47.34375 -68.65625 C 44.039062 -70.832031 39.988281 -71.921875 35.1875 -71.921875 C 29.914062 -71.921875 25.675781 -70.671875 22.46875 -68.171875 C 19.269531 -65.679688 17.671875 -62.539062 17.671875 -58.75 C 17.671875 -55.90625 18.539062 -53.609375 20.28125 -51.859375 C 22.03125 -50.117188 24.097656 -48.765625 26.484375 -47.796875 C 28.878906 -46.828125 31.054688 -46.085938 33.015625 -45.578125 L 41.078125 -43.40625 C 43.140625 -42.863281 45.441406 -42.113281 47.984375 -41.15625 C 50.535156 -40.195312 52.976562 -38.894531 55.3125 -37.25 C 57.65625 -35.613281 59.585938 -33.515625 61.109375 -30.953125 C 62.628906 -28.398438 63.390625 -25.265625 63.390625 -21.546875 C 63.390625 -17.253906 62.269531 -13.378906 60.03125 -9.921875 C 57.800781 -6.460938 54.546875 -3.710938 50.265625 -1.671875 C 45.992188 0.367188 40.8125 1.390625 34.71875 1.390625 C 26.195312 1.390625 19.425781 -0.625 14.40625 -4.65625 C 9.394531 -8.6875 6.660156 -13.957031 6.203125 -20.46875 L 16.125 -20.46875 C 16.382812 -17.46875 17.394531 -14.988281 19.15625 -13.03125 C 20.925781 -11.082031 23.175781 -9.632812 25.90625 -8.6875 C 28.632812 -7.75 31.570312 -7.28125 34.71875 -7.28125 C 38.382812 -7.28125 41.675781 -7.878906 44.59375 -9.078125 C 47.519531 -10.285156 49.832031 -11.96875 51.53125 -14.125 C 53.238281 -16.28125 54.09375 -18.804688 54.09375 -21.703125 C 54.09375 -24.335938 53.359375 -26.476562 51.890625 -28.125 C 50.421875 -29.78125 48.484375 -31.125 46.078125 -32.15625 C 43.671875 -33.195312 41.070312 -34.101562 38.28125 -34.875 L 28.515625 -37.671875 C 22.316406 -39.453125 17.410156 -41.992188 13.796875 -45.296875 C 10.179688 -48.609375 8.375 -52.9375 8.375 -58.28125 C 8.375 -62.726562 9.578125 -66.609375 11.984375 -69.921875 C 14.398438 -73.242188 17.65625 -75.828125 21.75 -77.671875 C 25.851562 -79.523438 30.4375 -80.453125 35.5 -80.453125 C 40.613281 -80.453125 45.160156 -79.539062 49.140625 -77.71875 C 53.117188 -75.894531 56.273438 -73.40625 58.609375 -70.25 C 60.953125 -67.101562 62.1875 -63.523438 62.3125 -59.515625 Z M 53.015625 -59.515625 "/></g></g></g><g fill="#ffffff" fill-opacity="1"><g transform="translate(146.363404, 104.953853)"><g><path d="M 8.375 22.328125 L 8.375 -59.515625 L 17.203125 -59.515625 L 17.203125 -50.0625 L 18.296875 -50.0625 C 18.960938 -51.101562 19.894531 -52.429688 21.09375 -54.046875 C 22.300781 -55.660156 24.035156 -57.101562 26.296875 -58.375 C 28.554688 -59.65625 31.625 -60.296875 35.5 -60.296875 C 40.507812 -60.296875 44.925781 -59.039062 48.75 -56.53125 C 52.570312 -54.03125 55.554688 -50.476562 57.703125 -45.875 C 59.847656 -41.28125 60.921875 -35.859375 60.921875 -29.609375 C 60.921875 -23.304688 59.847656 -17.847656 57.703125 -13.234375 C 55.554688 -8.617188 52.582031 -5.050781 48.78125 -2.53125 C 44.988281 -0.0195312 40.613281 1.234375 35.65625 1.234375 C 31.832031 1.234375 28.769531 0.597656 26.46875 -0.671875 C 24.164062 -1.953125 22.394531 -3.410156 21.15625 -5.046875 C 19.914062 -6.691406 18.960938 -8.054688 18.296875 -9.140625 L 17.515625 -9.140625 L 17.515625 22.328125 Z M 17.359375 -29.765625 C 17.359375 -23.015625 18.820312 -17.523438 21.75 -13.296875 C 24.6875 -9.078125 28.90625 -6.96875 34.40625 -6.96875 C 38.226562 -6.96875 41.425781 -7.984375 44 -10.015625 C 46.570312 -12.046875 48.507812 -14.785156 49.8125 -18.234375 C 51.113281 -21.679688 51.765625 -25.523438 51.765625 -29.765625 C 51.765625 -33.953125 51.125 -37.726562 49.84375 -41.09375 C 48.570312 -44.46875 46.648438 -47.140625 44.078125 -49.109375 C 41.503906 -51.085938 38.28125 -52.078125 34.40625 -52.078125 C 28.832031 -52.078125 24.597656 -50.023438 21.703125 -45.921875 C 18.804688 -41.816406 17.359375 -36.429688 17.359375 -29.765625 Z M 17.359375 -29.765625 "/></g></g></g><g fill="#ffffff" fill-opacity="1"><g transform="translate(203.581258, 104.953853)"><g><path d="M 25.890625 1.390625 C 22.117188 1.390625 18.691406 0.675781 15.609375 -0.75 C 12.535156 -2.1875 10.09375 -4.265625 8.28125 -6.984375 C 6.476562 -9.710938 5.578125 -13.015625 5.578125 -16.890625 C 5.578125 -20.304688 6.25 -23.078125 7.59375 -25.203125 C 8.9375 -27.335938 10.734375 -29.007812 12.984375 -30.21875 C 15.234375 -31.4375 17.71875 -32.347656 20.4375 -32.953125 C 23.164062 -33.566406 25.910156 -34.050781 28.671875 -34.40625 C 32.296875 -34.875 35.238281 -35.226562 37.5 -35.46875 C 39.757812 -35.71875 41.410156 -36.140625 42.453125 -36.734375 C 43.492188 -37.328125 44.015625 -38.363281 44.015625 -39.84375 L 44.015625 -40.140625 C 44.015625 -43.960938 42.972656 -46.929688 40.890625 -49.046875 C 38.816406 -51.171875 35.675781 -52.234375 31.46875 -52.234375 C 27.101562 -52.234375 23.679688 -51.273438 21.203125 -49.359375 C 18.722656 -47.453125 16.976562 -45.414062 15.96875 -43.25 L 7.28125 -46.34375 C 8.832031 -49.957031 10.90625 -52.78125 13.5 -54.8125 C 16.101562 -56.84375 18.945312 -58.265625 22.03125 -59.078125 C 25.113281 -59.890625 28.15625 -60.296875 31.15625 -60.296875 C 33.070312 -60.296875 35.273438 -60.066406 37.765625 -59.609375 C 40.253906 -59.160156 42.664062 -58.238281 45 -56.84375 C 47.34375 -55.445312 49.289062 -53.34375 50.84375 -50.53125 C 52.394531 -47.71875 53.171875 -43.945312 53.171875 -39.21875 L 53.171875 0 L 44.015625 0 L 44.015625 -8.0625 L 43.5625 -8.0625 C 42.9375 -6.769531 41.898438 -5.382812 40.453125 -3.90625 C 39.003906 -2.4375 37.078125 -1.1875 34.671875 -0.15625 C 32.273438 0.875 29.347656 1.390625 25.890625 1.390625 Z M 27.28125 -6.828125 C 30.894531 -6.828125 33.945312 -7.535156 36.4375 -8.953125 C 38.9375 -10.367188 40.820312 -12.203125 42.09375 -14.453125 C 43.375 -16.703125 44.015625 -19.066406 44.015625 -21.546875 L 44.015625 -29.921875 C 43.628906 -29.453125 42.785156 -29.03125 41.484375 -28.65625 C 40.179688 -28.28125 38.679688 -27.957031 36.984375 -27.6875 C 35.296875 -27.414062 33.65625 -27.179688 32.0625 -26.984375 C 30.476562 -26.796875 29.195312 -26.632812 28.21875 -26.5 C 25.832031 -26.195312 23.613281 -25.703125 21.5625 -25.015625 C 19.507812 -24.328125 17.851562 -23.304688 16.59375 -21.953125 C 15.34375 -20.597656 14.71875 -18.757812 14.71875 -16.4375 C 14.71875 -13.257812 15.898438 -10.863281 18.265625 -9.25 C 20.628906 -7.632812 23.632812 -6.828125 27.28125 -6.828125 Z M 27.28125 -6.828125 "/></g></g></g><g fill="#ffffff" fill-opacity="1"><g transform="translate(255.839155, 104.953853)"><g><path d="M 8.375 0 L 8.375 -59.515625 L 17.203125 -59.515625 L 17.203125 -50.53125 L 17.828125 -50.53125 C 18.890625 -53.476562 20.835938 -55.867188 23.671875 -57.703125 C 26.515625 -59.535156 29.734375 -60.453125 33.328125 -60.453125 C 34.984375 -60.453125 36.429688 -60.257812 37.671875 -59.875 C 38.910156 -59.488281 39.992188 -58.957031 40.921875 -58.28125 L 37.828125 -50.53125 C 37.179688 -50.863281 36.421875 -51.128906 35.546875 -51.328125 C 34.679688 -51.523438 33.679688 -51.625 32.546875 -51.625 C 28.210938 -51.625 24.625 -50.296875 21.78125 -47.640625 C 18.9375 -44.992188 17.515625 -41.671875 17.515625 -37.671875 L 17.515625 0 Z M 8.375 0 "/></g></g></g><g fill="#ffffff" fill-opacity="1"><g transform="translate(288.412223, 104.953853)"><g><path d="M 8.375 0 L 8.375 -79.359375 L 17.515625 -79.359375 L 17.515625 -33.015625 L 18.59375 -33.015625 L 44.640625 -59.515625 L 55.953125 -59.515625 L 30.8125 -34.109375 L 57.8125 0 L 46.1875 0 L 23.90625 -28.21875 L 17.515625 -22.28125 L 17.515625 0 Z M 8.375 0 "/></g></g></g><g fill="#18ff90" fill-opacity="1"><g transform="translate(338.510514, 104.953853)"><g><path d="M 15.03125 0.625 C 13.125 0.625 11.484375 -0.0546875 10.109375 -1.421875 C 8.742188 -2.796875 8.0625 -4.441406 8.0625 -6.359375 C 8.0625 -8.265625 8.742188 -9.898438 10.109375 -11.265625 C 11.484375 -12.640625 13.125 -13.328125 15.03125 -13.328125 C 16.945312 -13.328125 18.585938 -12.640625 19.953125 -11.265625 C 21.328125 -9.898438 22.015625 -8.265625 22.015625 -6.359375 C 22.015625 -4.441406 21.328125 -2.796875 19.953125 -1.421875 C 18.585938 -0.0546875 16.945312 0.625 15.03125 0.625 Z M 15.03125 0.625 "/></g></g></g></g></g></svg>